Coordinates
version=1
nRows=8
nColumns=42
inDegrees=yes

Units are S.I. units (second, meters, Newtons, ...)
If the header above contains a line with 'inDegrees', this indicates whether rotational values are in degrees (yes) or radians (no).

endheader
time	pelvis_tilt	pelvis_list	pelvis_rotation	pelvis_tx	pelvis_ty	pelvis_tz	hip_flexion_r	hip_adduction_r	hip_rotation_r	knee_angle_r	knee_adduction_r	knee_angle_r_beta	ankle_angle_r	subtalar_angle_r	mtp_angle_r	hip_flexion_l	hip_adduction_l	hip_rotation_l	knee_angle_l	knee_adduction_l	knee_angle_l_beta	ankle_angle_l	subtalar_angle_l	mtp_angle_l	lumbar_extension	lumbar_bending	lumbar_rotation	arm_flex_r	arm_add_r	arm_rot_r	elbow_flex_r	pro_sup_r	wrist_flex_r	wrist_dev_r	arm_flex_l	arm_add_l	arm_rot_l	elbow_flex_l	pro_sup_l	wrist_flex_l	wrist_dev_l
      1.95000000	      2.78017254	      8.47495215	      8.53180328	      0.70343462	      1.00260882	     -0.45101737	     15.21782301	    -11.03568846	    -37.19542559	     20.56614318	     -8.11635708	      0.35894691	      4.30431255	     29.34183492	     -7.51448310	     -6.28143707	      2.74565582	      1.04244918	     37.59898557	      1.41644419	      0.65622609	     -4.80576938	     -2.13171942	     -7.51448310	    -26.06396543	     -7.84953295	     -8.58265056	     -5.23935405	     -9.65765288	     14.78855347	     33.89680772	     90.00000001	      0.00000000	      0.00000000	     21.11120462	    -22.69428392	     15.87367859	     52.95835859	     90.00000001	      0.00000000	      0.00000000
      1.96000000	      2.62843927	      8.50021597	      8.58408904	      0.71094118	      1.00368265	     -0.44966476	     14.67876495	    -10.87009796	    -37.38636165	     20.16851615	     -8.05430881	      0.35200701	      4.65549832	     29.72714956	     -7.51353015	     -4.80476031	      2.36786239	      2.58526409	     40.21386702	      2.93263333	      0.70186438	     -6.35367955	     -6.25658994	     -7.51353015	    -25.97296066	     -7.93151232	     -8.36729966	     -4.14712856	     -9.88296400	     15.13962974	     33.89292301	     90.00000001	      0.00000000	      0.00000000	     20.28460563	    -22.45902272	     15.93383159	     52.15047405	     90.00000001	      0.00000000	      0.00000000
      1.97000000	      2.56571627	      8.47627837	      8.57039349	      0.71840237	      1.00457059	     -0.44829759	     14.06421655	    -10.66306053	    -37.53684370	     19.81757448	     -7.90330525	      0.34588192	      5.02002571	     29.98479379	     -7.51274712	     -3.31148076	      1.91012758	      3.30487628	     42.79071658	      3.99204175	      0.74683889	     -7.02822111	     -8.30394422	     -7.51274712	    -25.96433284	     -7.97320733	     -8.11626624	     -3.03737755	    -10.16231595	     15.41659877	     34.05218539	     90.00000001	      0.00000000	      0.00000000	     19.35976764	    -22.26557672	     15.80889442	     51.55562123	     90.00000001	      0.00000000	      0.00000000
      1.98000000	      2.56790519	      8.37420856	      8.49623152	      0.72580146	      1.00527571	     -0.44683339	     13.41682477	    -10.31235679	    -37.59656295	     19.45081492	     -7.79633845	      0.33948076	      5.43767625	     30.05336527	     -7.51249711	     -1.82447774	      1.34113096	      3.50061589	     45.22480501	      4.73335162	      0.78932175	     -7.04365947	     -9.19971400	     -7.51249711	    -26.00049757	     -7.95293348	     -7.77870851	     -1.93085986	    -10.43437210	     15.45466903	     34.32565759	     90.00000001	      0.00000000	      0.00000000	     18.39801105	    -22.15060838	     15.78866519	     51.08107569	     90.00000001	      0.00000000	      0.00000000
      1.99000000	      2.54044024	      8.29176252	      8.36604479	      0.73309114	      1.00581514	     -0.44541995	     12.86377559	    -10.00958965	    -37.66069096	     19.16284790	     -7.72436080	      0.33445479	      5.85566013	     30.29177418	     -7.51226307	     -0.32922919	      0.82777293	      3.68086275	     47.33995023	      5.42789057	      0.82623800	     -7.02352358	    -10.37608064	     -7.51226307	    -25.98605298	     -7.96828238	     -7.38520061	     -0.74696026	    -10.72905214	     15.59416067	     34.48225182	     90.00000001	      0.00000000	      0.00000000	     17.41304933	    -22.00175184	     15.61857923	     50.51031947	     90.00000001	      0.00000000	      0.00000000
      2.00000000	      2.47083093	      8.29513267	      8.18578473	      0.74024268	      1.00628167	     -0.44407033	     12.43083012	     -9.88397608	    -37.82776517	     19.02824012	     -7.65126173	      0.33210544	      6.28610110	     31.05577556	     -7.51164938	      1.12631530	      0.48277562	      4.21174723	     48.98076738	      6.31852799	      0.85487566	     -7.44378320	    -12.60110545	     -7.51164938	    -25.93649307	     -8.11091394	     -7.04861507	      0.65503326	    -11.09286877	     16.40091416	     34.29042272	     90.00000001	      0.00000000	      0.00000000	     16.38093861	    -21.56854493	     14.57938479	     49.69882940	     90.00000001	      0.00000000	      0.00000000
      2.01000000	      2.56709360	      8.22223016	      7.98152245	      0.74738633	      1.00675790	     -0.44268634	     11.76599070	     -9.62158565	    -37.78237302	     18.81875695	     -7.46702931	      0.32844927	      6.64362251	     31.01342927	     -7.51150071	      2.44421013	      0.01450376	      3.97847488	     50.37557212	      6.58170757	      0.87921960	     -6.99383739	    -12.99342714	     -7.51150071	    -26.06181065	     -8.14838700	     -6.64973046	      1.89707064	    -11.40398249	     16.39247000	     34.62111684	     90.00000001	      0.00000000	      0.00000000	     15.34619621	    -21.54393037	     14.48396186	     49.24669864	     90.00000001	      0.00000000	      0.00000000
      2.02000000	      2.47740521	      8.13155344	      7.68425519	      0.75442001	      1.00690909	     -0.44127612	     11.44720394	     -9.32579182	    -37.92018331	     18.64739262	     -7.58369145	      0.32545840	      7.15665082	     31.90802326	     -7.51095964	      3.93676583	     -0.42790294	      3.66664239	     51.38456568	      6.81430226	      0.89682986	     -6.64122416	    -13.82932193	     -7.51095964	    -25.92847723	     -8.23557712	     -6.18846344	      3.41049563	    -11.79519215	     17.27171604	     34.27038289	     90.00000001	      0.00000000	      0.00000000	     14.21013178	    -21.04731340	     13.08604545	     48.44720636	     90.00000001	      0.00000000	      0.00000000
